<?xml version="1.0" encoding="UTF-8"?>
<svg xmlns="http://www.w3.org/2000/svg" xmlns:xlink="http://www.w3.org/1999/xlink" width="153pt" height="172pt" viewBox="0 0 153 172" version="1.1">
<g id="surface1">
<path style=" stroke:none;fill-rule:nonzero;fill:rgb(0%,34.901961%,61.176471%);fill-opacity:1;" d="M 151.054688 129.132812 C 152.253906 127.050781 153 124.707031 153 122.605469 L 153 49.570312 C 153 47.464844 152.253906 45.125 151.054688 43.042969 L 76.5 86.085938 Z M 151.054688 129.132812 "/>
<path style=" stroke:none;fill-rule:nonzero;fill:rgb(0%,26.666667%,50.980392%);fill-opacity:1;" d="M 83.125 170.597656 L 146.375 134.078125 C 148.195312 133.027344 149.851562 131.210938 151.054688 129.132812 L 76.5 86.085938 L 1.945312 129.132812 C 3.148438 131.210938 4.804688 133.027344 6.625 134.078125 L 69.875 170.597656 C 73.519531 172.699219 79.480469 172.699219 83.125 170.597656 Z M 83.125 170.597656 "/>
<path style=" stroke:none;fill-rule:nonzero;fill:rgb(39.607843%,60.392157%,82.352941%);fill-opacity:1;" d="M 151.054688 43.042969 C 149.851562 40.964844 148.195312 39.148438 146.375 38.09375 L 83.125 1.578125 C 79.480469 -0.527344 73.519531 -0.527344 69.875 1.578125 L 6.625 38.09375 C 2.980469 40.199219 0 45.363281 0 49.570312 L 0 122.605469 C 0 124.707031 0.746094 127.050781 1.945312 129.132812 L 76.5 86.085938 Z M 151.054688 43.042969 "/>
<path style=" stroke:none;fill-rule:nonzero;fill:rgb(100%,100%,100%);fill-opacity:1;" d="M 76.5 137.085938 C 48.378906 137.085938 25.5 114.210938 25.5 86.085938 C 25.5 57.964844 48.378906 35.085938 76.5 35.085938 C 94.644531 35.085938 111.570312 44.851562 120.664062 60.570312 L 98.59375 73.34375 C 94.042969 65.476562 85.574219 60.585938 76.5 60.585938 C 62.4375 60.585938 51 72.027344 51 86.085938 C 51 100.148438 62.4375 111.585938 76.5 111.585938 C 85.574219 111.585938 94.042969 106.699219 98.59375 98.828125 L 120.667969 111.601562 C 111.570312 127.320312 94.648438 137.085938 76.5 137.085938 Z M 76.5 137.085938 "/>
<path style=" stroke:none;fill-rule:nonzero;fill:rgb(100%,100%,100%);fill-opacity:1;" d="M 127.5 83.253906 L 121.832031 83.253906 L 121.832031 77.585938 L 116.167969 77.585938 L 116.167969 83.253906 L 110.5 83.253906 L 110.5 88.921875 L 116.167969 88.921875 L 116.167969 94.585938 L 121.832031 94.585938 L 121.832031 88.921875 L 127.5 88.921875 Z M 127.5 83.253906 "/>
<path style=" stroke:none;fill-rule:nonzero;fill:rgb(100%,100%,100%);fill-opacity:1;" d="M 148.75 83.253906 L 143.082031 83.253906 L 143.082031 77.585938 L 137.417969 77.585938 L 137.417969 83.253906 L 131.75 83.253906 L 131.75 88.921875 L 137.417969 88.921875 L 137.417969 94.585938 L 143.082031 94.585938 L 143.082031 88.921875 L 148.75 88.921875 Z M 148.75 83.253906 "/>
</g>
</svg>
